<?xml version="1.0" encoding="utf-8"?>
<!-- Generator: Adobe Illustrator 19.2.1, SVG Export Plug-In . SVG Version: 6.00 Build 0)  -->
<svg version="1.1" id="Layer_1" xmlns="http://www.w3.org/2000/svg" xmlns:xlink="http://www.w3.org/1999/xlink" x="0px" y="0px"
	 width="100px" height="100px" viewBox="0 0 100 100" style="enable-background:new 0 0 100 100;" xml:space="preserve">
<style type="text/css">
	.st0{fill:#FFFFFF;}
</style>
<title>instagram</title>
<path class="st0" d="M0,89.8V10.2c0.1-0.2,0.2-0.4,0.2-0.6C1,5,4.4,1.3,8.9,0.3L10.2,0h79.7c0.2,0.1,0.4,0.1,0.6,0.2
	c4.6,0.7,8.3,4.2,9.3,8.8c0.1,0.4,0.2,0.8,0.3,1.2v79.7c-0.1,0.2-0.1,0.4-0.2,0.7c-0.8,4.6-4.4,8.3-8.9,9.3c-0.3,0.1-0.7,0.2-1,0.2
	H10.2c-0.2-0.1-0.4-0.1-0.6-0.2C5,99,1.3,95.6,0.3,91C0.2,90.6,0.1,90.2,0,89.8z M11.6,42.3c0,0.3,0,0.6,0,0.8c0,13.7,0,27.5,0,41.2
	c-0.1,2.1,1.5,4,3.7,4.1c0.2,0,0.4,0,0.6,0h68.4c2.7,0,4.3-1.6,4.3-4.3c0-13.6,0-27.1,0-40.7v-1.1h-8.7c2.2,9.5,0.6,18.3-5.2,26
	C69.1,76,60.4,80.5,51,80.7c-7.9,0.4-15.6-2.3-21.4-7.7c-9.1-8.3-11.9-18.6-9.4-30.6L11.6,42.3L11.6,42.3z M69.2,50
	c0-10.6-8.6-19.3-19.2-19.3s-19.3,8.6-19.3,19.2c0,10.6,8.6,19.2,19.2,19.3C60.6,69.2,69.2,60.7,69.2,50C69.2,50,69.2,50,69.2,50z
	 M78.9,11.5c-1.8,0-3.7,0-5.6,0c-2.1-0.2-4,1.4-4.1,3.5c0,0.2,0,0.3,0,0.5c-0.1,3.8-0.1,7.5,0,11.3c-0.1,2.1,1.4,3.9,3.5,4
	c0.1,0,0.3,0,0.4,0c3.8,0.1,7.5,0.1,11.3,0c2.1,0.1,3.9-1.5,4-3.6c0-0.2,0-0.3,0-0.5c0-3.7,0-7.3,0-11c0.1-2.1-1.5-4-3.6-4.1
	c-0.2,0-0.3,0-0.5,0C82.6,11.5,80.7,11.5,78.9,11.5L78.9,11.5z"/>
</svg>
