<?xml version="1.0" encoding="utf-8"?>
<!-- Generator: Adobe Illustrator 19.0.0, SVG Export Plug-In . SVG Version: 6.00 Build 0)  -->
<svg version="1.1" id="Layer_1" xmlns="http://www.w3.org/2000/svg" xmlns:xlink="http://www.w3.org/1999/xlink" x="0px" y="0px"
	 width="750.1px" height="434.7px" viewBox="-822 180 750.1 434.7" style="enable-background:new -822 180 750.1 434.7;"
	 xml:space="preserve">
<style type="text/css">
	.st0{fill:#730B12;}
</style>
<g id="XMLID_11_">
	<path class="st0" d="M-808.4,594.5c0.2-3,4.6-1.5,3.9-4c-0.8-2.5-3.6-2-5.8-1.9c-1,0.1-2,0.4-2.9,0.4c-3.4-0.3-8.4-0.8-8.8-3.7
		c-0.6-4.6,4.6-2.8,7.4-3.4c7.7-1.8,15.4-3.2,23.1-4.8c3.4-0.7,6.7-0.7,10.2-0.6c16.7,0.5,33.2,5,49.1-1.1
		c14.5-5.5,23.4-14.1,33.7-25.1c4.5-4.8,5.3-18.6,4.9-24.9c-0.7-11.1-3.3-22-9.1-31.9c-2.4-4-5-5.1-9.7-4.1
		c-16.5,3.6-20.7,3.1-20.5,19.4c0.1,6.8,0.3,13.6-0.1,20.3c-0.9,13.4-7,21.3-15.4,29.9c-2.4,2.4-5.1,4.3-6.6,7.5
		c-2.4,5.4-2,6.8-6.7,4.5c-5.2-2.6-7.3-6.7-5.1-12.6c2.4-6.5,1.8-13.5,1.8-20.2c0-28.8-0.6-57.6-1.1-86.4c-0.1-4.1-0.1-8.2,0.6-12.3
		c0.7-3.9-0.9-5.5-5-4.3c-4.3,1.2-8.5,2.3-13.1,1.4c-4.6-0.8-5.2-2.4-1.7-5.3c4.1-3.4,4.9-6.1-1.3-7.8c-3.8-1.1-2-3.1-0.7-4.9
		c6.4-8.6,15-15,24.6-19.4c17.5-8,28.8-12.6,48.5-10.2c16.4,2,30,8,37.2,25.3c5.1,12.3,7,23.9,4.9,36.7c-0.8,5.1-3,9.2-7.1,12.3
		c-1.7,1.3-3.5,2.8-4.9,4.4c-5.9,7.2-5.7,7.8,2.4,12.3c17.9,9.7,24.5,22.9,21.5,45.1c-0.9,6.5-0.6,12.5,1.1,18.6
		c1.2,4.2,1.2,8.5-0.9,12.1c-9.9,16.9-18.9,34.8-37.4,44.7c-23,12.3-47.5,16.8-73.5,12.8c-5.4-0.8-10.7-1.5-16.1-2.3
		c-10.2-1.4-11.1-2.1-13.3-10.5C-801.9,593.8-801.9,593.8-808.4,594.5z M-735.4,464.5c0.3,2.8,0.5,4.2,0.6,5.6
		c0.4,3.1,1.4,8.9,1.4,8.9c3,0.9,11.9-4.2,13.9-6.3c21.1-15.1,18.2-25,16.5-39.7c-0.7-6.1-1.4-12.6-5.7-17.7
		c-2-2.3-7.5-2.8-10.9-1.9c-3.2,0.9-11.9,2.5-12.3,5.2c-0.6,3.3-0.3,7.1-1.9,9.9C-740,439.6-733.6,454.2-735.4,464.5z M-189.6,524.3
		c1.4,4.4-0.8,7.8-1.6,11.7c-0.3,1.4-1.1,2.7-2.2,3.6c-0.8,0.7-1.6,1.3-2.4,2c-0.9,0.7-1.9,1.2-3.1,1.4c-1.2,0.2-2.5,0.4-3.7,0.4
		c-1.6,0.1-3.1-0.8-3.9-2.1c-3.2-5.5-4.9-12-8.7-16.9c-6.3-9.1,2.3-10.7-24.7-9.2c-1.3,0.3-2.8,0.1-4.5,0.1
		c-2.1,5.8-4.8,13.3-6.4,19.5c-4,15.2-0.7,22.8-13.6,24.6c-2.9,0.4-5.8,1.3-8.9,2c-2.2-0.9-2.4-2.9-2.3-5.6
		c0.2-6.6,2.3-12.7,3.1-19.2c0.3-2.3,0.8-4.4,0.6-7c-3.7-0.5-3.6,5.1-7.1,4.9c-0.3-3.7,0.8-7.1,1.6-10.7c1.2-5.4,3.8-10.7,1.5-16.7
		c1.8-4.6,0.9-10.2,4.1-14.6c2.4-3.3,2.8-8.5,4.4-12.6c3.4-8.8,3.2-18.7,5.4-27.8c0.7-2.8,1.1-5.4,3.5-6.8c1.6-0.9,1.9-2.9,2.4-4.6
		c3.4-9.9,7.9-19.2,10.2-29.4c6.8-4.3,14.9-1.8,18,5.9c1.5,3.7,3.6,5.8,6.7,6.6c5.3,1.4,7.3,5.6,8.6,11.5
		c4.3,19.8,7.5,39.9,13.8,59.2c3.3,10,5,20.6,9.4,30.2L-189.6,524.3L-189.6,524.3z M-72.2,400.5c0.7-7.3-2.4-13.5-6.2-19.6
		c-1.4-2.3-4.1-4.2-5.7-3.4c-3.6,1.9-4.4-1.2-6.4-2.2c-1.5-0.7-4.3-2.4-4.1,0.5c0.4,6.8,0.5,5.6-3.7,7.2c-2.1,0.8-5.6,0.8-5.3,3.7
		c0.4,4.2-1.2,8.1-1.4,12.1c-0.8,15.2,1.5,31.4,2.6,46.7c0.6,7.7,0.2,40.7,3.9,54.9c-6.1-8.1-26.5-46.2-30.3-54.1
		c-5.5-11.5-20.5-26.8-26.1-38.2c-3.5-7.1-0.4-15.8-8.9-19.7c-3.8-1.7-2.4-1.6-5.8-3.6c-5.4-3.2-4.1,1.5-8.9,2.7
		c-1.6,0.4-2.6,2.2-2.8,4.2c-1.1,13.5,0.2,27,1.1,40.3c0.9,12.4,2.7,24.7,2.9,37.2c0.1,9.9,1.9,19.8,2.4,29.7
		c1.5,27.4-1.1,32.9,4.7,59.8c0.2,0.8,0.4,2,1,2.4c1.9,1.1,4.4,3.1,4.6,4.2c10.1-7.1,11.2-20.7,14.7-32.4c4.7-15.2,2.7-4,3.5-19.9
		c0.2-4.1-2-31.3-1.8-42.9c3.3,3.2,19.2,35.2,20.7,39.3c5,13.8,21.2,45.1,31.3,56.1c2.6,2.8,5.9,4.2,8.2,0.4
		c2.2-3.7,4.2-3.3,7.6-1.9c3.9,1.7,6.8-0.4,6.5-4.4c-0.4-5.3-2.6-10.2-2.4-15.9c0.1-3.6,0.2-6.9,1.9-9.9c1.1-2,1.5-3.8,1.9-5.9
		c1.5-7.8-0.6-34.9-0.7-42.7c-0.2-14.1-1.3-24.5,0.2-38.4c0.7-6.2-1.3-15.8-0.9-22.1c0.1-1.3,0.3-2.4,0.8-3.3
		C-71.6,413-72.2,401.1-72.2,400.5L-72.2,400.5z M-348.7,460.7c0.9,8.9-1.8,18.3-1.5,27.1c0.5,14.6-0.7,22.9-2.4,37.4
		c-1,8.1,0.8,12.9,0.1,21.1c-0.3,3.4-1.9,6-5.4,6.2c-5.7,0.3-2.8,0.5-7.5-3.2c-4.9-3.9-9.4-5.3-7.8-12.4c1.1-4.6,0.6-5.2,0.8-10
		c0.1-1.2-1.1-14.5-0.8-18.5c0.6-7.9,1.4-10.5,0.4-19.7c-0.1-1.1-0.3-2.8,0.4-3.6c1.2-7.8,0.5-13.2,1.5-20.3
		c0.2-15.3-2.6-27.6-1.4-41.4c0.2-2.1,0-4.3-0.6-6.3c-1.2-4.1,2.5-8.9,5.7-10.2c6-2.3,9.4-1.7,11.5,3.5
		c5.4,13.1,14.8,23.1,24.1,33.3c3.7,4.1,6.5,8.9,9.7,13.4c1,1.4,1.8,3.1,4.1,3.7c2.1-8.8,4-17.6,6.3-26.4c3.2-12.3,5.1-25,11-36.6
		c1.5-2.9,1.7-6.5,2.6-9.8c0.3-0.9,0.1-2.3,1.6-2.4c1.4-0.1,2.3,0.5,2.7,2c2.8,9.3,5.9,18.5,6,28.5c0.3,23.8-1.8,47.5-5.2,71
		c-1.3,9.1-3.8,18-2.7,27.4c0.4,3,1.2,5.9,2,8.8c1,3.5,1.2,6.5-1.4,9.9c-4.4,5.6-10.6,6.3-14.3,0.1c-3.9-6.6-8.4-12.5-14.1-17.7
		c-0.6-0.6-1.4-1.4-1.4-2.2c-0.4-11.3-8-19.5-12.4-29.1C-340.4,476.4-344.7,468.6-348.7,460.7L-348.7,460.7z M-457.1,449.8
		c-1.8,3.2,0.9,15.9,1.5,19c1.2,6.9-2,13.4-3,20.2c-0.4,2.7-0.3,5.9,0.7,8.3c1.9,4.5,0.8,9.6,3.1,14c0.9,1.7,0.5,3.6-0.9,4.9
		c-1.8,1.7-1.9,3.5-1.4,5.8c0.9,3.8-1.1,8.2-5,8.3c-14.2,0.3-18.2-9-17.4-19.9c1.3-18.2,0.2-31.6,2.4-49.8
		c1.5-12.6-0.3-36.8-2.1-49.5c-0.6-4.4-0.9-8.9,5.6-9c0.7,0,1.8-0.1,1.9-0.5c3.1-6.9,5.9-1.6,8.1,0.5c14.4,13.6,25.7,37.4,34.8,54.8
		c1.4,2.7,3,5.3,4.4,7.9c0.8,1.4,6.9,19.2,8.9,20.3c0,0,1.8-24.8,2-26.2c1.9-14.5,1.4-24.4,4.8-38.6c0.9-3.8,2-7.6,3.1-11.3
		c0.8-2.5,3.3-3.2,4-1c2.1,6.6,9.4,9.1,11.5,15.7c1.6,4.8,2.1,9.5,2.4,14.5c0.9,14.6-3.7,28.3-5.4,42.4c-1.5,12.6-3.6,25.2-3.9,37.9
		c0,2,0,3.9-0.4,5.9c-1.2,6.6-5.8,8.9-11.6,5.5c-4.9-2.8-9.7-5.9-14.5-9c-3.8-2.5-5.8-6.3-6.5-10.7c-1-6.6-3.9-12.2-8.2-17.1
		c-3.5-4-5.5-8.6-7-13.6C-447.5,471.7-450.7,462.1-457.1,449.8L-457.1,449.8z M-488.2,554.8c-0.3,0-1.4,0-2.4-0.3
		c-19.8-6.3-37.6-15.5-50.5-32.6c-2.2-3-5.2-5.4-7.9-8c-9.7-9.1-14.8-20.3-15.4-33.5c-0.1-2.6-0.3-5-2.7-6.6c-0.4-0.3-1-0.8-1-1.2
		c0.8-12.7-3.6-25.4,1-38.3c4.2-12,10.9-21.7,21.4-28.8c1.5-1,2.9-2,3.7-3.7c2.4-5.2,6.1-5.5,10.9-3.4c4,1.8,8.2,3.4,12.6,4.3
		c2.4,0.5,4.9,1.5,6.7,3.1c5.5,5,11.1,10,16,15.5c8.2,9.4,7.4,23.7-1.2,32.9c-0.7,0.8-1.8,1.4-2.2,2.3
		c-5.7,12.3-16.7,16.3-28.6,16.3c-19.6,0-13.7,10.4-10.7,18c7.8,19.5,23.3,31.6,42.2,41.4c6.1,3.2,11.9,7.1,14.8,13.8
		C-478.1,554.1-478.8,555.1-488.2,554.8L-488.2,554.8z M-539.6,458.9c12.2-4.4,25.5-7.6,28.4-24.3c0.2-1.4,0.6-2.8,1-4.2
		c0.4-1.6,0.2-3.2-1.5-4.6c-4.3-3.7-17.8-6.7-21.5-2.5c-7,8.2-9,21.3-7.8,34.7C-541,458.7-540.3,459.1-539.6,458.9z"/>
	<path id="XMLID_1_" class="st0" d="M-189.2,294.7c1.5,10.1,1.1,20.7,2.2,29.4c1.5,11.5-2.7,22.4-0.4,33.8c1.7,8.5-7,19.2-7.7,27.9
		c-0.4,4.5-2.1,15.6-5.1,14.9c-6.7-1.5-6.7-12.8-8.9-20c-2.9-9.5-0.8-17.4,0.3-27.3c0.4-3.3,0-6.9-2-9.2c-4.2-4.8-3.9-13.3-3.5-20.2
		c1.1-21.1-1-42-1.7-63c-0.2-7,2.2-13.9,0.3-20.4c-0.5-1.8-1.8-4.2-0.1-5.6c3.5-3,4.8-5.9,8.1-5.6c6.9,0.7,14.3,8.8,18.5,17.9
		c7.1,15.2,17.7,23.9,25.5,38.3c4,7.4,18.2,42.5,22.8,46.5c0.3-22.5-4-29.5-1.4-63c0.7-8.4,6.2-16.5,6.8-24.9c0.3-3.6,2-5.4,3.7-7.3
		c4.3-4.8,11.7-4.3,15.6,0.9c1.5,2.1,1.6,4.6,1.8,7.7c0.7,16.3-3,32-3,48.2c0,9.4-1.3,18.9-2.7,28.2c-1.7,11.1,0,21.5,0.5,32.8
		c0.6,11.7,0.9,19.7-2.4,28.9c-0.2,0.1-0.7,5.7-0.7,5.8c-1.5,5.8-4,9.4-8.7,6.4c-5.7-3.6-11-7.9-12.9-17c0-0.2-0.1-0.5-0.1-0.7
		c-1.4-5.8-8-20.3-16.5-32.2c-2.6-3.6-9.2-17.2-11.4-20.7C-177,317.6-183.7,304.8-189.2,294.7L-189.2,294.7z"/>
	<path id="XMLID_2_" class="st0" d="M-510.3,384.4c-3.2-0.2-5.3-1.5-7.3-3.5c-6.9-6.9-17.9-22.4-22.4-30.9c-3.7-6.9-10.6-9.5-17-5.2
		c-6,4-11.8,4-17.9,1.6c-2.5-0.9-3.9,0.3-5.6,1.6c-3.5,2.7-5.5,6.7-7.5,10.5c-4.2,7.9-21.4,25.8-29.2,26.8c-0.5,0.1-1.6-0.1-1.6-0.2
		c-0.1-4.6-7.2-2.4-4.3-8.7c1.7-3.5,12.2-12.4,11.2-12.8c-5.9-2.3-2.1-5.1-0.5-7.8c9.6-15.9,16.7-25.8,27.8-54.9
		c1.9-4.3,2.9-8.9,4.8-13.2c3.6-8.1,2.6-18.9,11.4-23.4c1.9-1,2.8-3.1,3.6-5c1.8-4.4,5.1-7.8,7.8-11.7c1.1-1.5,2.4-2.3,4.4-1.9
		c1.9,0.4,2.7,1.6,3.3,3.4c2.7,7.8,4.4,15.9,5.4,24.1c1.6,13.1,6.8,25.1,12.9,36.3c7.2,13.1,10,27.3,14.1,41.3
		c-4,7.9,4.1,16.3,5.3,23.1C-511,378.1-506.7,384.4-510.3,384.4L-510.3,384.4z"/>
	<path id="XMLID_3_" class="st0" d="M-363.7,233.5c4.2,0.4,17.3,9,18.7,16.5c0.7,3.8-3.4,5.6-5.2,8.4c-0.1,0.1-0.2,0.2-0.4,0.2
		c-3.4,0.5-3.6,5.8-8.5,4.8c-10.5-2.1-21.6-2.5-27.8-13.3c-0.4-0.8-1.2-2.1-0.5-2.4c3.4-1.3,4.9-3.6,5-7.1c0-0.1,0.2-0.3,0.3-0.3
		C-375.5,240.7-372.5,233.1-363.7,233.5L-363.7,233.5z"/>
	<path class="st0" d="M-645.9,482.5c1.8-15.9-0.6-31.5-2.2-47.2c-0.3-3.2-1.4-6.1-2.9-9c-0.9-1.6-3.7-2.9-2.3-4.6
		c1-1.3,4-2.2,5.6-1.8c3.3,1,4.4-0.8,6-3c8-11.1,19.9-15.3,32.2-9.8c7.4,3.3,13.6,9.5,14.8,18.4c0.9,6.5,1.8,12.9,3.2,19.4
		c0.8,3.7,0.9,7.9-1.1,11.2c-3.1,4.9-6.1,5.3-1.9,6.9c8.9,3.4,13.3,10,14.8,19.5c1.9,12.6,3.9,26,2.5,38.7
		c-0.7,5.9,4.4,12.3,6.9,17.9c2.7,6.1,1.3,8.1-5.4,8.2c-11.4,0.2-15.9-8-20.6-20.2c-1.9-5-2.3-10.3-1.4-15.5c2.3-13-0.9-25-5.1-37
		c-2.7-7.7-12.2-3.8-17.2-3.6c-5,0.2-3.6,4.4-3.5,7.2c0.4,9.7-0.6,19.3,1.9,29c1,3.9-1.1,8.5-0.1,13c0.6,2.6-1.8,3.5-4.1,3.6
		c-9.8,0.5-17.9-7.3-18-17.2c0-4.1-3.2-7.6-1.9-12.2C-644.8,490.7-645.8,486.5-645.9,482.5z M-616.1,445.3c1.9-4.3,2.6-9.1,2.3-13.8
		c-0.1-2.6-0.2-5-1.4-7.5c-1.3-2.7-5.8-5.9-8.3-4.2c-5.2,3.6-5.9,7.5-4.9,14.3c0.8,5.4,1.8,10.8,1.7,16.3c0,1.2,0.1,3.9,1.4,7.1
		c0.3,0.7,3.2-1.9,3.7-2.6C-619.5,451.8-617.6,448.6-616.1,445.3L-616.1,445.3z"/>
	<path id="XMLID_4_" class="st0" d="M-725.6,240.7c-1.3-3.8-3.5-6.5-2.7-10.5c-5.6,2.3-9.4,5.9-13.1,9.6c-3.2,3.1-7,5.2-10.5,7.9
		c-0.5,0.4-1.2,0.9-1.7,0.8c-8.1-2.5-11.7,4.5-16.8,8.1c-2.3,1.6-4.3,1.9-6.9,1.3c-2.9-0.7-2.8-1.9-1.2-3.8c1.7-2,4.3-3.8,5-6.1
		c1.7-5.5,5.1-9.2,9.5-12.6c3.6-2.8,1.5-5.6-1.4-7.3c-2.3-1.3-1.9-2.5-0.6-4c7.3-8.1,12.9-11.9,22-18.3c3.2-2.3,5.7-5.8,8.4-8.7
		c8.4-8.9,19.5-11,30.8-13.2c22.4-4.5,45.2-7.2,63.2,3.9c9.8,6,17.5,15.5,24.3,25.3c1.7,2.4,2.8,7.9,4.5,10.3
		c3.2,4.4,4.4,9.6,4,15.1c-0.4,4.7,0.1,9.3,0.5,14c1,10.2-0.7,20.2-2.3,30.2c-0.5,2.8-1.2,5.5-1.2,8.3c-0.1,11.1-2.2,22-7.8,31.5
		c-6.8,11.6-14.3,23-25.7,30.9c-3.6,2.5-8.3,3.5-10.8,7.8c-0.7,1.2-2.7,1.5-4.3,1.5c-12.9-0.2-25.1,4.8-37.9,5.4
		c-5.6,0.3-11.2,1.2-16.8,1c-7.5-0.2-14.9,2.3-22.4,1.2c-2.4-0.4-5.4,0.5-7-2.6c-3.1-6.1-2-8.7,4.7-10.9c5.4-1.8,5.4-1.8,2.7-6.5
		c-0.9-1.5-0.1-2.8,1.1-3.6c2.8-1.9,3.5-4.6,3.5-7.7c-0.1-13.1,3.1-26,2.2-39.1c-0.6-8.4,2.1-17.1-2.6-25.3
		c-1.8-3.1-0.8-7.4-0.3-11.1c0.8-6.4,0.7-12.8,0.8-19.2C-732.1,238.6-731.3,238.1-725.6,240.7L-725.6,240.7z M-643.4,250.4
		c0.4-16.4-23.1-39-55.6-23.6c-1.7,0.9-2.1,1.3-1.7,3.3c1.9,8.7,5.6,17.1,5.1,26.2c-0.1,1.1,0.4,2.2,0.7,3.2
		c2.2,8.3,2.6,16.9,2,25.4c-0.5,8.3-0.1,28-2.5,41.8c-0.4,2.3,19-4.3,21.6-5.2c10-3.7,18.9-14.7,23.3-24.1c3.8-7.9,5.7-17.6,7-25.2
		C-642.2,265-643.8,255.8-643.4,250.4L-643.4,250.4z"/>
	<path id="XMLID_7_" class="st0" d="M-473.6,289c0,10.7-5.1,45.7-3.3,49.5c2.2,4.9-0.5,11.2-0.8,16.1c-0.3,6.1,1.7,11.2-1.9,12.1
		c-2.9,0.4-3.4,2.1-3.5,4.1c-0.2,3.7-0.2,0.5-0.2,4.2c-0.1,5.7,1.6,10.9-4,14.2c-2.2,1.3-2.7,3.4-3.4,6.4c-5.3-5.7-6.8-11.8-7-17.9
		c-0.4-15.9,2.4-17.3,0.7-33.1c-1.8-16.1,1-39.9,0.7-56c-0.3-13.5-0.1-27-0.6-40.5c-0.2-6,2.7-7.7,8.7-5.9c12.8,3.8,22.1,11,27,22.9
		c1.5,3.6,7,23.1,8.5,23.3c0,0,6.2-15.7,7.9-18.8c3.9-7.2,7.9-17.5,10.8-25.1c0.9-2.3,2.4-3.7,4.9-4.1c4.6-0.8,9.2-1.7,13.9-2
		c4.4-0.2,5.1,5.3,6.2,8.7c1.4,11.8-0.5,20.3,1.4,32c2.4,22.3-2.1,34.7,2.7,66c1.5,17.8,2.9,28.7,5.9,37.2c1.7,4.7-1.8,6.7-6.5,7
		c-7.7,0.5-14.2-15.3-17.5-28.1c-4.4-14.7-3.5-46.3-5-61.3c-0.6-4.6,1.7-14.1-0.4-15c0,0-3,7.4-5.1,12c-0.6,1.3-1.4,2.5-2.3,3.6
		c-3.7,4.9-7.1,22-7.5,25.8c-0.7,6.2-6.3,6.8-10,9.4c-1.6,1.1-3.1-0.6-4-1.8c-0.9-1.1-5.1-8.4-8.4-19.4
		C-469.1,304.4-471.1,290.6-473.6,289L-473.6,289z"/>
	<path class="st0" d="M-376,357.4c0.2-4.4,0.4-8.2-0.2-12.1c-1.1-8.2-1.6-16.5-0.8-24.8c1-10.5-0.3-20.9-0.7-31.3
		c-0.3-9-1.7-11,6.4-9.1c1,0.2,2,0.8,2.9,1.4c0.9,0.6,1.6,1.3,2.1-0.3c1-3.6,2.8-1.8,4.1-0.6c3.2,2.7,4.1,7,5.3,10.8
		c1.8,5.8,2.9,11.9,4.4,17.8c1.8,7.1,1.1,14.5,2,21.7c0.8,5.6,1.1,11,0.6,16.7c-0.5,6.1-2.4,11.6-4.7,17.1
		c-1.5,3.5-2.1,7.1-1.9,10.9c0.1,3.2-1.2,4.4-4,2.5c-2.9-2-5.5-2.1-8.9-0.5c-1.3,0.6-1.3,2.8-3.3,1.4c-2.5-1.6-4-4-4-7.4
		C-376.6,366.6-377.1,361.7-376,357.4L-376,357.4z"/>
	<path id="XMLID_8_" class="st0" d="M-252.3,388.3c-15.5,0.3-39.4-9.3-51.2-17.9c-5.6-4.1-14.7-12.7-17.9-18.2
		c-3.7-6.4-2.8-15.3-4.6-22.8c-2.9-12.1-0.7-23.8-0.1-35.8c0.5-10.6,4.3-19.7,10.7-27.8c6.9-8.8,16.6-14,27.1-16.7
		c7.4-1.9,15.3,1.2,22,4.3c10.4,4.9,18.8,12.9,27.2,20.7c8.3,7.8,7.1,10.7,7.4,20.7c0.3,8.9-4.1,13-12.9,14.6
		c-5,0.9-9.3,4.5-14.8,5.7c-5.7,1.3-11.1,2-16.8,1.1c-1-0.2-2.1,0.1-3-0.1c-25.3-6.4-24.7-1.2-19.5,22.2c0.9,4.3,8.4,9.6,10,13.7
		c0.9,2.2,9.5,9.2,11.6,9.4c5.7,0.5,21.7,6.6,27.5,3.6c1.3-0.7,2.2,0,3.2,0.6c5.1,3.3,9.1,2.5,13.1,7c2,2.3,4.5,5.7-1.3,7
		c-0.4,0.1-1,0.5-1.1,0.9C-238.3,389.7-245.7,388-252.3,388.3L-252.3,388.3z M-299.3,294c-0.3,5.3,6.8,3.7,11.6,2.5
		c2.5-0.6,4.9-0.5,7.5-0.3c6.2,0.6,22.4-1.7,25.6-7.1c3-5.1-6-14.5-11.9-15.5c-6.2-1-15.7,0.7-20.8,3.3
		C-291,278.9-300.7,289.5-299.3,294L-299.3,294z"/>
</g>
</svg>
