<svg id="Layer_2" data-name="Layer 2" xmlns="http://www.w3.org/2000/svg" viewBox="0 0 435.4 245.87"><defs><style>.cls-1{fill:#fff;}</style></defs><title>soundcloud</title><path class="cls-1" d="M101,396.13a1.89,1.89,0,0,0-1.81,1.76L94.87,437l4.28,38.24a1.81,1.81,0,0,0,3.62,0L107.65,437l-4.87-39.1A1.89,1.89,0,0,0,101,396.13Z" transform="translate(-79.94 -298.01)"/><path class="cls-1" d="M84.87,411.1a1.8,1.8,0,0,0-1.75,1.7L79.94,437l3.18,23.77a1.8,1.8,0,0,0,1.75,1.7,1.83,1.83,0,0,0,1.74-1.69L90.38,437,86.61,412.8A1.83,1.83,0,0,0,84.87,411.1Z" transform="translate(-79.94 -298.01)"/><path class="cls-1" d="M118.07,388.46a2.23,2.23,0,0,0-2.18,2.14L111.83,437l4.06,44.7a2.23,2.23,0,0,0,2.18,2.14,2.26,2.26,0,0,0,2.18-2.13L124.87,437l-4.62-46.39A2.26,2.26,0,0,0,118.07,388.46Z" transform="translate(-79.94 -298.01)"/><path class="cls-1" d="M135.32,386.82a2.62,2.62,0,0,0-2.56,2.51L128.92,437l3.84,46.12a2.55,2.55,0,0,0,5.11,0L142.23,437l-4.36-47.68A2.63,2.63,0,0,0,135.32,386.82Z" transform="translate(-79.94 -298.01)"/><polygon class="cls-1" points="75.69 185.49 75.69 185.49 75.69 185.49 75.69 185.49"/><path class="cls-1" d="M155.63,392.77a2.92,2.92,0,0,0-5.85,0L146.15,437l3.62,46.5a2.92,2.92,0,0,0,5.85,0L159.73,437Z" transform="translate(-79.94 -298.01)"/><path class="cls-1" d="M170.23,361.82a3.36,3.36,0,0,0-3.3,3.26L163.53,437l3.4,46.49a3.3,3.3,0,0,0,6.59,0h0l3.85-46.5-3.85-71.95A3.38,3.38,0,0,0,170.23,361.82Z" transform="translate(-79.94 -298.01)"/><path class="cls-1" d="M187.62,345.24a3.72,3.72,0,0,0-3.67,3.64l-3.18,88.39,3.19,46.2a3.67,3.67,0,0,0,7.33,0v0l3.6-46.21-3.6-88.39A3.73,3.73,0,0,0,187.62,345.24Z" transform="translate(-79.94 -298.01)"/><path class="cls-1" d="M205.7,337.26a4.08,4.08,0,0,0-4,4l-3,95.77,3,45.73a4,4,0,0,0,8.08,0v0L213.08,437l-3.34-95.77A4.1,4.1,0,0,0,205.7,337.26Z" transform="translate(-79.94 -298.01)"/><path class="cls-1" d="M228.05,338a4.41,4.41,0,0,0-8.82,0l-2.74,99,2.75,45.44a4.41,4.41,0,0,0,8.82,0L231.15,437Z" transform="translate(-79.94 -298.01)"/><polygon class="cls-1" points="148.12 184.46 148.12 184.46 148.11 184.48 148.12 184.46"/><path class="cls-1" d="M241.73,335.82a4.8,4.8,0,0,0-4.79,4.76l-2.52,96.47,2.53,45a4.78,4.78,0,0,0,9.56,0v0l2.84-45-2.84-96.48A4.81,4.81,0,0,0,241.73,335.82Z" transform="translate(-79.94 -298.01)"/><path class="cls-1" d="M260,339a5.16,5.16,0,0,0-5.16,5.14l-2.3,93,2.31,44.73a5.15,5.15,0,0,0,10.31,0v0l2.58-44.73-2.58-93A5.17,5.17,0,0,0,260,339Z" transform="translate(-79.94 -298.01)"/><path class="cls-1" d="M281.38,321.89a5.4,5.4,0,0,0-6,0,5.62,5.62,0,0,0-2.55,4.61l0,1L270.71,437c0,0.07,2.09,44.46,2.09,44.46s0,0.13,0,.19a5.57,5.57,0,0,0,5.51,5.29,5.47,5.47,0,0,0,3.87-1.61,5.62,5.62,0,0,0,1.66-3.88l0.23-4.39,2.1-40-2.33-110.62A5.64,5.64,0,0,0,281.38,321.89Z" transform="translate(-79.94 -298.01)"/><polygon class="cls-1" points="203.91 183.5 203.91 183.48 203.91 183.5 203.91 183.47 203.91 183.46 203.91 183.47 203.91 183.48 203.91 183.5"/><path class="cls-1" d="M299.61,311.4a5.78,5.78,0,0,0-6.72.5,6,6,0,0,0-2.18,4.54V317l-2.41,120,1.23,22.19,1.19,21.59a5.9,5.9,0,0,0,11.79,0v0h0l2.62-43.79h0L302.5,316.43A6,6,0,0,0,299.61,311.4Z" transform="translate(-79.94 -298.01)"/><path class="cls-1" d="M461.79,380a53.51,53.51,0,0,0-20.71,4.16A94.5,94.5,0,0,0,347,298a95.71,95.71,0,0,0-34.26,6.4c-4,1.57-5.12,3.17-5.15,6.3v170a6.3,6.3,0,0,0,5.79,6.15c0.14,0,148.45,0,148.45,0A53.42,53.42,0,1,0,461.79,380Z" transform="translate(-79.94 -298.01)"/><path class="cls-1" d="M122.7,519c-6.28-1.48-8-2.27-8-4.75,0-1.75,1.41-3.56,5.65-3.56a12.08,12.08,0,0,1,9,4.08l5.72-5.54A19,19,0,0,0,120.66,503c-7.81,0-14.14,4.42-14.14,11.6,0,7.8,5.09,10.12,12.39,11.81,7.47,1.7,8.82,2.84,8.82,5.38,0,3-2.21,4.3-6.9,4.3a12.83,12.83,0,0,1-10.12-4.53L105,536.7c3,4.41,8.77,7.18,15.39,7.18,10.8,0,15.56-5.09,15.56-12.61C135.93,522.67,129,520.52,122.7,519Zm36.44-16c-10.8,0-17.19,8.37-17.19,20.42s6.39,20.42,17.19,20.42,17.2-8.36,17.2-20.42S169.93,503,159.13,503Zm0,33c-6.39,0-9.05-5.48-9.05-12.55s2.66-12.56,9.05-12.56,9,5.48,9,12.56S165.53,536,159.13,536Zm49.15-10.12c0,6.33-3.11,10.24-8.14,10.24s-8.09-4-8.09-10.35V503.66h-7.92V525.9c0,11.54,6.45,18,16,18,10.06,0,16.06-6.62,16.06-18.1V503.66h-7.92V525.9Zm42.09-5.49c0,2.21.11,7.18,0.11,8.66-0.51-1-1.81-3-2.77-4.48l-14-20.93H226.1v39.6h7.81V525.84c0-2.21-.12-7.18-0.12-8.66,0.51,1,1.81,3,2.77,4.47l14.54,21.61h7.08v-39.6h-7.81v16.75Zm30.37-16.75H268.36v39.6h11.82c10.18,0,20.25-5.89,20.25-19.8C300.43,509,292.06,503.66,280.74,503.66Zm-0.56,31.91h-3.91V511.36h4.19c8.37,0,11.82,4,11.82,12.1C292.29,530.7,288.5,535.57,280.18,535.57Zm44.75-24.66a7.52,7.52,0,0,1,7.24,4.3l7.35-3.4C337,506.66,332.5,503,325,503c-10.35,0-17.59,8.37-17.59,20.42,0,12.5,6.95,20.42,17.31,20.42,7.19,0,11.93-3.34,14.65-8.94l-6.68-4c-2.09,3.51-4.19,5-7.75,5-5.94,0-9.4-5.43-9.4-12.55C315.58,516.11,319,510.91,324.92,510.91Zm29.37-7.25h-7.92v39.6h23.81v-7.81H354.3V503.66ZM391,503c-10.81,0-17.2,8.37-17.2,20.42s6.39,20.42,17.2,20.42,17.2-8.36,17.2-20.42S401.84,503,391,503Zm0,33c-6.4,0-9.05-5.48-9.05-12.55s2.66-12.56,9.05-12.56,9,5.48,9,12.56S397.43,536,391,536Zm49.15-10.12c0,6.33-3.1,10.24-8.14,10.24s-8.09-4-8.09-10.35V503.66H416V525.9c0,11.54,6.45,18,16,18,10.07,0,16.07-6.62,16.07-18.1V503.66h-7.93V525.9Zm30.21-22.23H458v39.6h11.82c10.2,0,20.25-5.89,20.25-19.8C490.08,509,481.72,503.66,470.41,503.66Zm-0.58,31.91h-3.9V511.36h4.19c8.36,0,11.82,4,11.82,12.1C481.94,530.7,478.15,535.57,469.83,535.57Z" transform="translate(-79.94 -298.01)"/></svg>