<svg id="Layer_1" data-name="Layer 1" xmlns="http://www.w3.org/2000/svg" viewBox="0 0 388.91 316.06"><defs><style>.cls-1{fill:#fff;}</style></defs><title>twitter</title><path class="cls-1" d="M398.49,79.4A159.5,159.5,0,0,1,352.67,92a80,80,0,0,0,35.08-44.14,159.75,159.75,0,0,1-50.67,19.36,79.87,79.87,0,0,0-136,72.77A226.52,226.52,0,0,1,36.66,56.59,79.88,79.88,0,0,0,61.35,163.12a79.47,79.47,0,0,1-36.14-10c0,0.33,0,.67,0,1a79.84,79.84,0,0,0,64,78.24,80,80,0,0,1-36,1.37,79.87,79.87,0,0,0,74.54,55.41,160.1,160.1,0,0,1-99.09,34.16,162.42,162.42,0,0,1-19-1.11A225.84,225.84,0,0,0,131.89,358c146.76,0,227-121.58,227-227q0-5.19-.23-10.32A162.16,162.16,0,0,0,398.49,79.4Z" transform="translate(-9.58 -41.99)"/></svg>